<svg xmlns="http://www.w3.org/2000/svg" viewBox="0 0 760 480" font-family="'Trebuchet MS', Verdana, sans-serif">
  <rect x="5" y="5" width="750" height="470" rx="12" fill="#ffffff" stroke="#1f2937" stroke-width="4"/>
  <rect x="5" y="5" width="750" height="46" rx="12" fill="#111827"/>
  <circle cx="34" cy="28" r="16" fill="#4f46e5"/><text x="34" y="34" text-anchor="middle" fill="#fff" font-size="17" font-weight="bold">6</text>
  <text x="60" y="34" fill="#f9fafb" font-size="19" font-weight="bold">THE ACCOUNT'S LIFE</text>

  <!-- lifecycle track -->
  <line x1="110" y1="130" x2="650" y2="130" stroke="#cbd5e1" stroke-width="6" stroke-linecap="round"/>

  <!-- station: Created -->
  <g transform="translate(110,130)">
    <circle r="16" fill="#16a34a"/><text x="0" y="6" text-anchor="middle" fill="#fff" font-size="16" font-weight="bold">1</text>
    <text x="0" y="-28" text-anchor="middle" fill="#166534" font-size="15" font-weight="bold">Created</text>
    <rect x="-58" y="34" width="116" height="40" rx="8" fill="#dcfce7" stroke="#16a34a" stroke-width="2"/>
    <text x="0" y="52" text-anchor="middle" fill="#166534" font-size="12" font-weight="bold">ACR signed</text>
    <text x="0" y="68" text-anchor="middle" fill="#166534" font-size="11">+ AOC to user</text>
  </g>
  <!-- station: Active -->
  <g transform="translate(290,130)">
    <circle r="16" fill="#0d9488"/><text x="0" y="6" text-anchor="middle" fill="#fff" font-size="16" font-weight="bold">2</text>
    <text x="0" y="-28" text-anchor="middle" fill="#0f766e" font-size="15" font-weight="bold">Active</text>
    <rect x="-66" y="34" width="132" height="40" rx="8" fill="#ccfbf1" stroke="#0d9488" stroke-width="2"/>
    <text x="0" y="52" text-anchor="middle" fill="#0f766e" font-size="12" font-weight="bold">agent manages it</text>
    <text x="0" y="68" text-anchor="middle" fill="#0f766e" font-size="11">bills within the cap</text>
  </g>
  <!-- station: Renews -->
  <g transform="translate(470,130)">
    <circle r="16" fill="#2563eb"/><text x="0" y="6" text-anchor="middle" fill="#fff" font-size="16" font-weight="bold">3</text>
    <text x="0" y="-28" text-anchor="middle" fill="#1e40af" font-size="15" font-weight="bold">Renews</text>
    <rect x="-58" y="34" width="116" height="40" rx="8" fill="#dbeafe" stroke="#2563eb" stroke-width="2"/>
    <text x="0" y="52" text-anchor="middle" fill="#1e40af" font-size="12" font-weight="bold">signed receipt</text>
    <text x="0" y="68" text-anchor="middle" fill="#1e40af" font-size="11">every cycle</text>
  </g>
  <!-- station: Ends -->
  <g transform="translate(650,130)">
    <circle r="16" fill="#e11d48"/><text x="0" y="6" text-anchor="middle" fill="#fff" font-size="16" font-weight="bold">4</text>
    <text x="0" y="-28" text-anchor="middle" fill="#9f1239" font-size="15" font-weight="bold">Cancelled</text>
    <rect x="-66" y="34" width="132" height="40" rx="8" fill="#ffe4e6" stroke="#e11d48" stroke-width="2"/>
    <text x="0" y="52" text-anchor="middle" fill="#9f1239" font-size="12" font-weight="bold">Cancellation Receipt</text>
    <text x="0" y="68" text-anchor="middle" fill="#9f1239" font-size="11">+ prorated refund</text>
  </g>

  <!-- branch: claim anytime -->
  <line x1="290" y1="146" x2="290" y2="250" stroke="#f59e0b" stroke-width="3" stroke-dasharray="6 5"/>
  <polygon points="290,250 283,238 297,238" fill="#f59e0b"/>
  <g transform="translate(150,256)">
    <rect x="0" y="0" width="300" height="56" rx="12" fill="#fff7ed" stroke="#f59e0b" stroke-width="3"/>
    <text x="150" y="24" text-anchor="middle" fill="#92400e" font-size="14" font-weight="bold">…anytime → the user can take ownership</text>
    <text x="150" y="44" text-anchor="middle" fill="#b45309" font-size="13">using the AOC  (see next panel →)</text>
  </g>

  <rect x="5" y="404" width="750" height="71" rx="12" fill="#111827"/>
  <text x="28" y="436" fill="#f9fafb" font-size="16">An agent-provisioned account has a full life — created, active, renewed, cancelled —</text>
  <text x="28" y="461" fill="#f9fafb" font-size="16">and <tspan font-weight="bold" fill="#86efac">every transition emits a signed receipt.</tspan> Cancelling returns a prorated refund.</text>
</svg>
